solid exported
	facet normal 0.46910492711403134 -0.3134485765282797 0.8256455397019564
		outer loop
			vertex 0.5308899283409119 -0.21990099549293504 0.6169670224189758
			vertex 0.40632501244544983 -0.40632396936416615 0.6169670224189759
			vertex 0.5254009962081909 -0.35106098651885975 0.5702919960021974
		endloop
	endfacet
	facet normal 0.31344899555873834 -0.46910173855909554 0.8256471922462112
		outer loop
			vertex 0.40632501244544983 -0.40632396936416615 0.6169670224189759
			vertex 0.21990199387073517 -0.5308899283409118 0.6169670224189759
			vertex 0.35106199979782104 -0.5254009962081908 0.5702919960021974
		endloop
	endfacet
	facet normal 0.11006466524306795 -0.5533467861805488 0.825647081802261
		outer loop
			vertex 0.21990199387073517 -0.5308899283409118 0.6169670224189759
			vertex 2.911299930019595e-7 -0.5746299624443053 0.6169670224189759
			vertex 0.12327700108289719 -0.6197530031204223 0.5702919960021974
		endloop
	endfacet
	facet normal -0.11006491017646616 -0.553346970480851 0.8256469256331733
		outer loop
			vertex 2.911299930019595e-7 -0.5746299624443053 0.6169670224189759
			vertex -0.21990099549293518 -0.5308899283409118 0.6169670224189759
			vertex -0.1232760027050972 -0.6197530031204223 0.5702919960021974
		endloop
	endfacet
	facet normal -0.31344857652828034 -0.46910492711403157 0.8256455397019561
		outer loop
			vertex -0.21990099549293518 -0.5308899283409118 0.6169670224189759
			vertex -0.40632396936416626 -0.4063250124454497 0.6169670224189759
			vertex -0.35106098651885986 -0.5254009962081908 0.5702919960021974
		endloop
	endfacet
	facet normal -0.4691017385590954 -0.31344899555873773 0.8256471922462117
		outer loop
			vertex -0.40632396936416626 -0.4063250124454497 0.6169670224189759
			vertex -0.5308899283409119 -0.21990199387073503 0.6169670224189758
			vertex -0.5254009962081909 -0.35106199979782093 0.5702919960021974
		endloop
	endfacet
	facet normal -0.5533467576894822 -0.1100646273787105 0.8256471059444968
		outer loop
			vertex -0.5308899283409119 -0.21990199387073503 0.6169670224189758
			vertex -0.5746299624443054 -2.2680200104275473e-7 0.6169670224189758
			vertex -0.6197530031204224 -0.12327700108289706 0.5702919960021973
		endloop
	endfacet
	facet normal -0.5533469989720522 0.11006494804101583 0.825646901490796
		outer loop
			vertex -0.5746299624443054 -2.2680200104275473e-7 0.6169670224189758
			vertex -0.5308899283409119 0.21990099549293532 0.6169670224189758
			vertex -0.6197530031204224 0.12327600270509732 0.5702919960021973
		endloop
	endfacet
	facet normal -0.4691049271140317 0.31344857652828095 0.8256455397019556
		outer loop
			vertex -0.5308899283409119 0.21990099549293532 0.6169670224189758
			vertex -0.40632501244544983 0.40632396936416637 0.6169670224189757
			vertex -0.5254009962081909 0.35106098651886 0.5702919960021972
		endloop
	endfacet
	facet normal -0.31344899555873834 0.46910173855909554 0.8256471922462112
		outer loop
			vertex -0.40632501244544983 0.40632396936416637 0.6169670224189757
			vertex -0.21990199387073517 0.530889928340912 0.6169670224189757
			vertex -0.35106199979782104 0.525400996208191 0.5702919960021972
		endloop
	endfacet
	facet normal -0.1100645442809829 0.5533466951625249 0.8256471589274267
		outer loop
			vertex -0.21990199387073517 0.530889928340912 0.6169670224189757
			vertex -8.562660269717526e-8 0.5746299624443055 0.6169670224189757
			vertex -0.12327700108289719 0.6197530031204225 0.5702919960021972
		endloop
	endfacet
	facet normal 0.11006503113934582 0.5533470614994316 0.8256468485074228
		outer loop
			vertex -8.562660269717526e-8 0.5746299624443055 0.6169670224189757
			vertex 0.21990099549293518 0.530889928340912 0.6169670224189757
			vertex 0.1232760027050972 0.6197530031204225 0.5702919960021972
		endloop
	endfacet
	facet normal 0.31344650943296887 0.4691044582511303 0.8256465908445342
		outer loop
			vertex 0.21990099549293518 0.530889928340912 0.6169670224189757
			vertex 0.40632501244544983 0.40632501244544994 0.6169670224189757
			vertex 0.35106199979782104 0.525400996208191 0.5702919960021972
		endloop
	endfacet
	facet normal 0.4691049812144123 0.3134485375136036 0.8256455237754329
		outer loop
			vertex 0.40632501244544983 0.40632501244544994 0.6169670224189757
			vertex 0.5308899283409119 0.2199019938707353 0.6169670224189758
			vertex 0.5254009962081909 0.35106199979782116 0.5702919960021972
		endloop
	endfacet
	facet normal 0.5533466478053488 0.1100644813437548 0.8256471990560579
		outer loop
			vertex 0.5308899283409119 0.2199019938707353 0.6169670224189758
			vertex 0.5746299624443054 -2.1298100923557545e-8 0.6169670224189758
			vertex 0.6197530031204224 0.12327700108289731 0.5702919960021973
		endloop
	endfacet
	facet normal 0.5533471088570431 -0.1100650940771952 0.8256468083783344
		outer loop
			vertex 0.5746299624443054 -2.1298100923557545e-8 0.6169670224189758
			vertex 0.5308899283409119 -0.21990099549293504 0.6169670224189758
			vertex 0.6197530031204224 -0.12327600270509707 0.5702919960021973
		endloop
	endfacet
	facet normal 0.9232480534062982 -0.3824230510579251 0.03695459242135972
		outer loop
			vertex 0.9708349704742432 -0.1931109875440597 0.2980110049247742
			vertex 0.895583987236023 -0.37096199393272394 0.33754599094390875
			vertex 0.8230339884757996 -0.5499330163002013 0.2980110049247743
		endloop
	endfacet
	facet normal 0.6753487671249685 -0.27973948615354505 0.6823854208798249
		outer loop
			vertex 0.8230339884757996 -0.5499330163002013 0.2980110049247743
			vertex 0.9238799810409546 -0.3826830089092254 0.266767978668213
			vertex 0.9708349704742432 -0.1931109875440597 0.2980110049247742
		endloop
	endfacet
	facet normal 0.7066246738064531 -0.7066220520365278 0.036970879670494686
		outer loop
			vertex 0.8230339884757996 -0.5499330163002013 0.2980110049247743
			vertex 0.68545001745224 -0.6854490041732787 0.33754599094390886
			vertex 0.5499340295791626 -0.8230339884757994 0.29801100492477434
		endloop
	endfacet
	facet normal 0.5168954162480376 -0.5168934984253134 0.6823783700758757
		outer loop
			vertex 0.5499340295791626 -0.8230339884757994 0.29801100492477434
			vertex 0.7071070075035095 -0.7071059942245482 0.26676797866821306
			vertex 0.8230339884757996 -0.5499330163002013 0.2980110049247743
		endloop
	endfacet
	facet normal 0.38242271246537196 -0.9232472359740992 0.03697851074358501
		outer loop
			vertex 0.5499340295791626 -0.8230339884757994 0.29801100492477434
			vertex 0.3709629774093628 -0.8955829739570617 0.3375459909439089
			vertex 0.19311200082302094 -0.970834970474243 0.2980110049247744
		endloop
	endfacet
	facet normal 0.279739537090659 -0.6753488900976582 0.6823852782938425
		outer loop
			vertex 0.19311200082302094 -0.970834970474243 0.2980110049247744
			vertex 0.38268399238586426 -0.9238799810409545 0.2667679786682131
			vertex 0.5499340295791626 -0.8230339884757994 0.29801100492477434
		endloop
	endfacet
	facet normal 0.5167095006358885 -0.44786483557967643 -0.7296769017885932
		outer loop
			vertex 0.14068299531936646 -0.14068299531936654 -0.4363769590854644
			vertex 0.9238799810409546 -0.3826830089092254 0.266767978668213
			vertex 0.8230339884757996 -0.5499330163002013 0.2980110049247743
		endloop
	endfacet
	facet normal 0.6081940556947187 -0.3027241828236001 -0.7337970153601014
		outer loop
			vertex 0.8230339884757996 -0.5499330163002013 0.2980110049247743
			vertex 0.7071070075035095 -0.7071059942245482 0.26676797866821306
			vertex 0.14068299531936646 -0.14068299531936654 -0.4363769590854644
		endloop
	endfacet
	facet normal 0 -0.9993159581044452 0.03698129091574494
		outer loop
			vertex 0.19311200082302094 -0.970834970474243 0.2980110049247744
			vertex 4.911220230496838e-7 -0.9693719148635863 0.3375459909439089
			vertex -0.19311098754405975 -0.970834970474243 0.2980110049247744
		endloop
	endfacet
	facet normal 0 -0.7309984092400683 0.6823791656319013
		outer loop
			vertex -0.19311098754405975 -0.970834970474243 0.2980110049247744
			vertex 5.066399921815901e-7 -0.9999999999999999 0.2667679786682131
			vertex 0.19311200082302094 -0.970834970474243 0.2980110049247744
		endloop
	endfacet
	facet normal 0.30272680086312453 -0.6081923738141211 -0.7337973292902631
		outer loop
			vertex 0.14068299531936646 -0.14068299531936654 -0.4363769590854644
			vertex 0.7071070075035095 -0.7071059942245482 0.26676797866821306
			vertex 0.5499340295791626 -0.8230339884757994 0.29801100492477434
		endloop
	endfacet
	facet normal 0.4478646581871753 -0.5167092500918988 -0.7296771880882342
		outer loop
			vertex 0.5499340295791626 -0.8230339884757994 0.29801100492477434
			vertex 0.38268399238586426 -0.9238799810409545 0.2667679786682131
			vertex 0.14068299531936646 -0.14068299531936654 -0.4363769590854644
		endloop
	endfacet
	facet normal -0.38242271654202364 -0.9232472458159765 0.03697822285931332
		outer loop
			vertex -0.19311098754405975 -0.970834970474243 0.2980110049247744
			vertex -0.370961993932724 -0.8955829739570617 0.3375459909439089
			vertex -0.5499330163002014 -0.8230339884757994 0.29801100492477434
		endloop
	endfacet
	facet normal -0.2797394861535452 -0.6753487671249686 0.6823854208798248
		outer loop
			vertex -0.5499330163002014 -0.8230339884757994 0.29801100492477434
			vertex -0.38268300890922546 -0.9238799810409545 0.2667679786682131
			vertex -0.19311098754405975 -0.970834970474243 0.2980110049247744
		endloop
	endfacet
	facet normal 0.04868144779847655 -0.6820566592729839 -0.729677209580799
		outer loop
			vertex 1.0079899936954462e-7 -0.19895599782466897 -0.4363769590854644
			vertex 0.38268399238586426 -0.9238799810409545 0.2667679786682131
			vertex 0.19311200082302094 -0.970834970474243 0.2980110049247744
		endloop
	endfacet
	facet normal 0.2159981761781357 -0.6441166603695472 -0.7337973260527055
		outer loop
			vertex 0.19311200082302094 -0.970834970474243 0.2980110049247744
			vertex 5.066399921815901e-7 -0.9999999999999999 0.2667679786682131
			vertex 1.0079899936954462e-7 -0.19895599782466897 -0.4363769590854644
		endloop
	endfacet
	facet normal -0.7066220520365278 -0.7066246738064531 0.036970879670494686
		outer loop
			vertex -0.5499330163002014 -0.8230339884757994 0.29801100492477434
			vertex -0.6854490041732788 -0.6854500174522399 0.33754599094390886
			vertex -0.8230339884757996 -0.5499340295791625 0.2980110049247743
		endloop
	endfacet
	facet normal -0.5168875855161739 -0.5168895033169593 0.6823873279157572
		outer loop
			vertex -0.8230339884757996 -0.5499340295791625 0.2980110049247743
			vertex -0.7071070075035095 -0.7071070075035094 0.26676797866821306
			vertex -0.5499330163002014 -0.8230339884757994 0.29801100492477434
		endloop
	endfacet
	facet normal -0.21599817723913153 -0.6441167838327361 -0.7337972173661775
		outer loop
			vertex 1.0079899936954462e-7 -0.19895599782466897 -0.4363769590854644
			vertex 5.066399921815901e-7 -0.9999999999999999 0.2667679786682131
			vertex -0.19311098754405975 -0.970834970474243 0.2980110049247744
		endloop
	endfacet
	facet normal -0.04868145086003935 -0.6820566858597924 -0.7296771845248542
		outer loop
			vertex -0.19311098754405975 -0.970834970474243 0.2980110049247744
			vertex -0.38268300890922546 -0.9238799810409545 0.2667679786682131
			vertex 1.0079899936954462e-7 -0.19895599782466897 -0.4363769590854644
		endloop
	endfacet
	facet normal -0.9232477872261299 -0.38242185482653906 0.03697361671630988
		outer loop
			vertex -0.8230339884757996 -0.5499340295791625 0.2980110049247743
			vertex -0.8955829739570618 -0.37096297740936274 0.33754599094390875
			vertex -0.9708349704742432 -0.1931109875440597 0.2980110049247742
		endloop
	endfacet
	facet normal -0.6753470804236136 -0.27973799311584907 0.6823877022417818
		outer loop
			vertex -0.9708349704742432 -0.1931109875440597 0.2980110049247742
			vertex -0.9238799810409546 -0.3826839923858642 0.266767978668213
			vertex -0.8230339884757996 -0.5499340295791625 0.2980110049247743
		endloop
	endfacet
	facet normal -0.4478648355796761 -0.5167095006358887 -0.7296769017885931
		outer loop
			vertex -0.14068299531936646 -0.14068299531936654 -0.4363769590854644
			vertex -0.38268300890922546 -0.9238799810409545 0.2667679786682131
			vertex -0.5499330163002014 -0.8230339884757994 0.29801100492477434
		endloop
	endfacet
	facet normal -0.3027228043413859 -0.6081948161533558 -0.7337969537521077
		outer loop
			vertex -0.5499330163002014 -0.8230339884757994 0.29801100492477434
			vertex -0.7071070075035095 -0.7071070075035094 0.26676797866821306
			vertex -0.14068299531936646 -0.14068299531936654 -0.4363769590854644
		endloop
	endfacet
	facet normal -0.9993159581044452 1.06435323613501e-17 0.03698129091574494
		outer loop
			vertex -0.9708349704742432 -0.1931109875440597 0.2980110049247742
			vertex -0.9693719148635864 -3.4529600149434495e-7 0.3375459909439087
			vertex -0.9708349704742432 0.1931109875440598 0.2980110049247741
		endloop
	endfacet
	facet normal -0.7309984092400683 1.9704158192061956e-16 0.6823791656319013
		outer loop
			vertex -0.9708349704742432 0.1931109875440598 0.2980110049247741
			vertex -1 -3.648459880286019e-7 0.2667679786682129
			vertex -0.9708349704742432 -0.1931109875440597 0.2980110049247742
		endloop
	endfacet
	facet normal -0.6081939016373158 -0.30272403139460147 -0.7337972055189222
		outer loop
			vertex -0.14068299531936646 -0.14068299531936654 -0.4363769590854644
			vertex -0.7071070075035095 -0.7071070075035094 0.26676797866821306
			vertex -0.8230339884757996 -0.5499340295791625 0.2980110049247743
		endloop
	endfacet
	facet normal -0.5167092500918985 -0.44786465818717563 -0.7296771880882343
		outer loop
			vertex -0.8230339884757996 -0.5499340295791625 0.2980110049247743
			vertex -0.9238799810409546 -0.3826839923858642 0.266767978668213
			vertex -0.14068299531936646 -0.14068299531936654 -0.4363769590854644
		endloop
	endfacet
	facet normal -0.9232472458159766 0.3824227165420237 0.03697822285931355
		outer loop
			vertex -0.9708349704742432 0.1931109875440598 0.2980110049247741
			vertex -0.8955829739570618 0.37096199393272405 0.33754599094390864
			vertex -0.8230339884757996 0.5499330163002015 0.29801100492477406
		endloop
	endfacet
	facet normal -0.6753447090369187 0.279737805233225 0.6823901261735386
		outer loop
			vertex -0.8230339884757996 0.5499330163002015 0.29801100492477406
			vertex -0.9238799810409546 0.3826839923858643 0.2667679786682128
			vertex -0.9708349704742432 0.1931109875440598 0.2980110049247741
		endloop
	endfacet
	facet normal -0.6820567309974275 -0.048681213835310495 -0.7296771581464119
		outer loop
			vertex -0.19895599782466888 -7.258819333086407e-8 -0.4363769590854645
			vertex -0.9238799810409546 -0.3826839923858642 0.266767978668213
			vertex -0.9708349704742432 -0.1931109875440597 0.2980110049247742
		endloop
	endfacet
	facet normal -0.6441165420276099 -0.21599910562191676 -0.7337971563428999
		outer loop
			vertex -0.9708349704742432 -0.1931109875440597 0.2980110049247742
			vertex -1 -3.648459880286019e-7 0.2667679786682129
			vertex -0.19895599782466888 -7.258819333086407e-8 -0.4363769590854645
		endloop
	endfacet
	facet normal -0.7066251468240041 0.7066225250523238 0.03695279373244413
		outer loop
			vertex -0.8230339884757996 0.5499330163002015 0.29801100492477406
			vertex -0.68545001745224 0.6854500174522401 0.3375459909439085
			vertex -0.5499340295791626 0.8230339884757997 0.298011004924774
		endloop
	endfacet
	facet normal -0.5168895033169597 0.5168875855161743 0.6823873279157565
		outer loop
			vertex -0.5499340295791626 0.8230339884757997 0.298011004924774
			vertex -0.7071070075035095 0.7071070075035096 0.2667679786682127
			vertex -0.8230339884757996 0.5499330163002015 0.29801100492477406
		endloop
	endfacet
	facet normal -0.6441167444903365 0.2159983282899269 -0.733797207437537
		outer loop
			vertex -0.19895599782466888 -7.258819333086407e-8 -0.4363769590854645
			vertex -1 -3.648459880286019e-7 0.2667679786682129
			vertex -0.9708349704742432 0.1931109875440598 0.2980110049247741
		endloop
	endfacet
	facet normal -0.682056726457417 0.04868121199112978 -0.7296771625131672
		outer loop
			vertex -0.9708349704742432 0.1931109875440598 0.2980110049247741
			vertex -0.9238799810409546 0.3826839923858643 0.2667679786682128
			vertex -0.19895599782466888 -7.258819333086407e-8 -0.4363769590854645
		endloop
	endfacet
	facet normal -0.38242185482653895 0.9232477872261298 0.0369736167163101
		outer loop
			vertex -0.5499340295791626 0.8230339884757997 0.298011004924774
			vertex -0.3709629774093628 0.8955829739570619 0.33754599094390847
			vertex -0.19311098754405975 0.9708349704742433 0.29801100492477395
		endloop
	endfacet
	facet normal -0.2797379931158493 0.6753470804236142 0.6823877022417809
		outer loop
			vertex -0.19311098754405975 0.9708349704742433 0.29801100492477395
			vertex -0.38268399238586426 0.9238799810409547 0.26676797866821267
			vertex -0.5499340295791626 0.8230339884757997 0.298011004924774
		endloop
	endfacet
	facet normal -0.5167082027376334 0.44786665020083183 -0.7296767070843982
		outer loop
			vertex -0.14068299531936646 0.14068299531936637 -0.43637695908546453
			vertex -0.9238799810409546 0.3826839923858643 0.2667679786682128
			vertex -0.8230339884757996 0.5499330163002015 0.29801100492477406
		endloop
	endfacet
	facet normal -0.6081948161533557 0.30272280434138543 -0.7337969537521079
		outer loop
			vertex -0.8230339884757996 0.5499330163002015 0.29801100492477406
			vertex -0.7071070075035095 0.7071070075035096 0.2667679786682127
			vertex -0.14068299531936646 0.14068299531936637 -0.43637695908546453
		endloop
	endfacet
	facet normal 0 0.9993159581044452 0.03698129091574494
		outer loop
			vertex -0.19311098754405975 0.9708349704742433 0.29801100492477395
			vertex -1.4444798068780074e-7 0.9693719148635865 0.33754599094390847
			vertex 0.19311098754405975 0.9708349704742433 0.29801100492477395
		endloop
	endfacet
	facet normal 0 0.7309984092400695 0.6823791656318999
		outer loop
			vertex 0.19311098754405975 0.9708349704742433 0.29801100492477395
			vertex -1.4901199563155387e-7 1 0.26676797866821267
			vertex -0.19311098754405975 0.9708349704742433 0.29801100492477395
		endloop
	endfacet
	facet normal -0.3027240313946011 0.6081939016373158 -0.7337972055189225
		outer loop
			vertex -0.14068299531936646 0.14068299531936637 -0.43637695908546453
			vertex -0.7071070075035095 0.7071070075035096 0.2667679786682127
			vertex -0.5499340295791626 0.8230339884757997 0.298011004924774
		endloop
	endfacet
	facet normal -0.4478646581871756 0.5167092500918983 -0.7296771880882345
		outer loop
			vertex -0.5499340295791626 0.8230339884757997 0.298011004924774
			vertex -0.38268399238586426 0.9238799810409547 0.26676797866821267
			vertex -0.14068299531936646 0.14068299531936637 -0.43637695908546453
		endloop
	endfacet
	facet normal 0.38242185482653895 0.9232477872261298 0.0369736167163101
		outer loop
			vertex 0.19311098754405975 0.9708349704742433 0.29801100492477395
			vertex 0.3709629774093628 0.8955829739570619 0.33754599094390847
			vertex 0.5499340295791626 0.8230339884757997 0.298011004924774
		endloop
	endfacet
	facet normal 0.2797379931158493 0.6753470804236142 0.6823877022417809
		outer loop
			vertex 0.5499340295791626 0.8230339884757997 0.298011004924774
			vertex 0.38268399238586426 0.9238799810409547 0.26676797866821267
			vertex 0.19311098754405975 0.9708349704742433 0.29801100492477395
		endloop
	endfacet
	facet normal -0.048681213289824256 0.6820567296545478 -0.7296771594380448
		outer loop
			vertex -2.9646798793692142e-8 0.1989559978246688 -0.43637695908546453
			vertex -0.38268399238586426 0.9238799810409547 0.26676797866821267
			vertex -0.19311098754405975 0.9708349704742433 0.29801100492477395
		endloop
	endfacet
	facet normal -0.21599887569602041 0.6441166019138136 -0.7337971714561573
		outer loop
			vertex -0.19311098754405975 0.9708349704742433 0.29801100492477395
			vertex -1.4901199563155387e-7 1 0.26676797866821267
			vertex -2.9646798793692142e-8 0.1989559978246688 -0.43637695908546453
		endloop
	endfacet
	facet normal 0.7066235994598941 0.7066235994598941 0.036961836706073
		outer loop
			vertex 0.5499340295791626 0.8230339884757997 0.298011004924774
			vertex 0.68545001745224 0.6854500174522401 0.3375459909439085
			vertex 0.8230339884757996 0.5499340295791627 0.29801100492477406
		endloop
	endfacet
	facet normal 0.5168915008698892 0.5168915008698893 0.6823828490348702
		outer loop
			vertex 0.8230339884757996 0.5499340295791627 0.29801100492477406
			vertex 0.7071070075035095 0.7071070075035096 0.2667679786682127
			vertex 0.5499340295791626 0.8230339884757997 0.298011004924774
		endloop
	endfacet
	facet normal 0.2159985582146863 0.6441166846045233 -0.7337971923244556
		outer loop
			vertex -2.9646798793692142e-8 0.1989559978246688 -0.43637695908546453
			vertex -1.4901199563155387e-7 1 0.26676797866821267
			vertex 0.19311098754405975 0.9708349704742433 0.29801100492477395
		endloop
	endfacet
	facet normal 0.048681212536615795 0.6820567278002961 -0.7296771612215348
		outer loop
			vertex 0.19311098754405975 0.9708349704742433 0.29801100492477395
			vertex 0.38268399238586426 0.9238799810409547 0.26676797866821267
			vertex -2.9646798793692142e-8 0.1989559978246688 -0.43637695908546453
		endloop
	endfacet
	facet normal 0.9232477872261299 0.3824218548265389 0.036973616716310276
		outer loop
			vertex 0.8230339884757996 0.5499340295791627 0.29801100492477406
			vertex 0.8955829739570618 0.37096297740936285 0.33754599094390864
			vertex 0.9708349704742432 0.1931109875440598 0.2980110049247741
		endloop
	endfacet
	facet normal 0.6753470804236142 0.2797379931158495 0.6823877022417808
		outer loop
			vertex 0.9708349704742432 0.1931109875440598 0.2980110049247741
			vertex 0.9238799810409546 0.3826839923858643 0.2667679786682128
			vertex 0.8230339884757996 0.5499340295791627 0.29801100492477406
		endloop
	endfacet
	facet normal 0.4478646581871756 0.5167092500918983 -0.7296771880882345
		outer loop
			vertex 0.14068299531936646 0.14068299531936637 -0.43637695908546453
			vertex 0.38268399238586426 0.9238799810409547 0.26676797866821267
			vertex 0.5499340295791626 0.8230339884757997 0.298011004924774
		endloop
	endfacet
	facet normal 0.3027240313946011 0.6081939016373158 -0.7337972055189225
		outer loop
			vertex 0.5499340295791626 0.8230339884757997 0.298011004924774
			vertex 0.7071070075035095 0.7071070075035096 0.2667679786682127
			vertex 0.14068299531936646 0.14068299531936637 -0.43637695908546453
		endloop
	endfacet
	facet normal 0.9993159581044452 1.06435323613501e-17 0.03698129091574494
		outer loop
			vertex 0.9708349704742432 0.1931109875440598 0.2980110049247741
			vertex 0.9693719148635864 1.3786498248671266e-9 0.3375459909439087
			vertex 0.9708349704742432 -0.1931109875440597 0.2980110049247742
		endloop
	endfacet
	facet normal 0.7309984092400683 1.9704158192061956e-16 0.6823791656319013
		outer loop
			vertex 0.9708349704742432 -0.1931109875440597 0.2980110049247742
			vertex 1 -7.217899108010078e-9 0.2667679786682129
			vertex 0.9708349704742432 0.1931109875440598 0.2980110049247741
		endloop
	endfacet
	facet normal 0.6081939016373159 0.302724031394601 -0.7337972055189224
		outer loop
			vertex 0.14068299531936646 0.14068299531936637 -0.43637695908546453
			vertex 0.7071070075035095 0.7071070075035096 0.2667679786682127
			vertex 0.8230339884757996 0.5499340295791627 0.29801100492477406
		endloop
	endfacet
	facet normal 0.5167092500918986 0.44786465818717536 -0.7296771880882345
		outer loop
			vertex 0.8230339884757996 0.5499340295791627 0.29801100492477406
			vertex 0.9238799810409546 0.3826839923858643 0.2667679786682128
			vertex 0.14068299531936646 0.14068299531936637 -0.43637695908546453
		endloop
	endfacet
	facet normal 0.6441166412565051 -0.21599872464438066 -0.7337971813849109
		outer loop
			vertex 0.19895599782466888 -1.4360400505124458e-9 -0.4363769590854645
			vertex 1 -7.217899108010078e-9 0.2667679786682129
			vertex 0.9708349704742432 -0.1931109875440597 0.2980110049247742
		endloop
	endfacet
	facet normal 0.6820566890569392 -0.04868145215874716 -0.7296771814497158
		outer loop
			vertex 0.9708349704742432 -0.1931109875440597 0.2980110049247742
			vertex 0.9238799810409546 -0.3826830089092254 0.266767978668213
			vertex 0.19895599782466888 -1.4360400505124458e-9 -0.4363769590854645
		endloop
	endfacet
	facet normal 0.6820567286825138 0.04868121289497783 -0.7296771603729841
		outer loop
			vertex 0.19895599782466888 -1.4360400505124458e-9 -0.4363769590854645
			vertex 0.9238799810409546 0.3826839923858643 0.2667679786682128
			vertex 0.9708349704742432 0.1931109875440598 0.2980110049247741
		endloop
	endfacet
	facet normal 0.6441166452619098 0.21599870926609982 -0.7337971823957367
		outer loop
			vertex 0.9708349704742432 0.1931109875440598 0.2980110049247741
			vertex 1 -7.217899108010078e-9 0.2667679786682129
			vertex 0.19895599782466888 -1.4360400505124458e-9 -0.4363769590854645
		endloop
	endfacet
	facet normal 0.5647591988913849 -0.3773577809108489 -0.7339265306920039
		outer loop
			vertex 0.1838109940290451 -0.0761369988322259 -0.4363769590854645
			vertex 0.14068299531936646 -0.14068299531936654 -0.4363769590854644
			vertex 0 -1.9302049820921557e-16 -0.6169670224189758
		endloop
	endfacet
	facet normal 0.37735889923723903 -0.5647582649685131 -0.733926674345751
		outer loop
			vertex 0.14068299531936646 -0.14068299531936654 -0.4363769590854644
			vertex 0.07613729685544968 -0.1838109940290452 -0.4363769590854644
			vertex 0 -1.9302049820921557e-16 -0.6169670224189758
		endloop
	endfacet
	facet normal 0.1325140741025107 -0.666176791787743 -0.7339267689954798
		outer loop
			vertex 0.07613729685544968 -0.1838109940290452 -0.4363769590854644
			vertex 1.0079899936954462e-7 -0.19895599782466897 -0.4363769590854644
			vertex 0 -1.9302049820921557e-16 -0.6169670224189758
		endloop
	endfacet
	facet normal -0.1325140877502446 -0.6661768641805298 -0.7339267008212172
		outer loop
			vertex 1.0079899936954462e-7 -0.19895599782466897 -0.4363769590854644
			vertex -0.07613709568977356 -0.1838109940290452 -0.4363769590854644
			vertex 0 -1.9302049820921557e-16 -0.6169670224189758
		endloop
	endfacet
	facet normal -0.3773581443662871 -0.5647588953671919 -0.7339265773795508
		outer loop
			vertex -0.07613709568977356 -0.1838109940290452 -0.4363769590854644
			vertex -0.14068299531936646 -0.14068299531936654 -0.4363769590854644
			vertex 0 -1.9302049820921557e-16 -0.6169670224189758
		endloop
	endfacet
	facet normal -0.5647585684941862 -0.3773585357805242 -0.7339266276583624
		outer loop
			vertex -0.14068299531936646 -0.14068299531936654 -0.4363769590854644
			vertex -0.1838109940290451 -0.07613719999790201 -0.4363769590854645
			vertex 0 -1.9302049820921557e-16 -0.6169670224189758
		endloop
	endfacet
	facet normal -0.6661767913615771 -0.13251419349505192 -0.7339267478253874
		outer loop
			vertex -0.1838109940290451 -0.07613719999790201 -0.4363769590854645
			vertex -0.19895599782466888 -7.258819333086407e-8 -0.4363769590854645
			vertex 0 -1.9302049820921557e-16 -0.6169670224189758
		endloop
	endfacet
	facet normal -0.6661768657513556 0.13251395561815305 -0.7339267232524856
		outer loop
			vertex -0.19895599782466888 -7.258819333086407e-8 -0.4363769590854645
			vertex -0.1838109940290451 0.07613719999790182 -0.4363769590854645
			vertex 0 -1.9302049820921557e-16 -0.6169670224189758
		endloop
	endfacet
	facet normal -0.5647585684941866 0.37735853578052303 -0.7339266276583628
		outer loop
			vertex -0.1838109940290451 0.07613719999790182 -0.4363769590854645
			vertex -0.14068299531936646 0.14068299531936637 -0.43637695908546453
			vertex 0 -1.9302049820921557e-16 -0.6169670224189758
		endloop
	endfacet
	facet normal -0.37735889923723875 0.5647582649685127 -0.7339266743457515
		outer loop
			vertex -0.14068299531936646 0.14068299531936637 -0.43637695908546453
			vertex -0.07613729685544968 0.18381099402904502 -0.43637695908546453
			vertex 0 -1.9302049820921557e-16 -0.6169670224189758
		endloop
	endfacet
	facet normal -0.13251395751709102 0.6661768282468115 -0.7339267569520659
		outer loop
			vertex -0.07613729685544968 0.18381099402904502 -0.43637695908546453
			vertex -2.9646798793692142e-8 0.1989559978246688 -0.43637695908546453
			vertex 0 -1.9302049820921557e-16 -0.6169670224189758
		endloop
	endfacet
	facet normal 0.1325140259791339 0.6661768437478035 -0.7339267305208445
		outer loop
			vertex -2.9646798793692142e-8 0.1989559978246688 -0.43637695908546453
			vertex 0.07613719999790192 0.18381099402904502 -0.43637695908546453
			vertex 0 -1.9302049820921557e-16 -0.6169670224189758
		endloop
	endfacet
	facet normal 0.37735853578052353 0.5647585684941862 -0.7339266276583629
		outer loop
			vertex 0.07613719999790192 0.18381099402904502 -0.43637695908546453
			vertex 0.14068299531936646 0.14068299531936637 -0.43637695908546453
			vertex 0 -1.9302049820921557e-16 -0.6169670224189758
		endloop
	endfacet
	facet normal 0.5647585684941865 0.37735853578052303 -0.7339266276583628
		outer loop
			vertex 0.14068299531936646 0.14068299531936637 -0.43637695908546453
			vertex 0.1838109940290451 0.07613719999790182 -0.4363769590854645
			vertex 0 -1.9302049820921557e-16 -0.6169670224189758
		endloop
	endfacet
	facet normal 0.6661767969125684 -0.13251442088393642 -0.7339267017305651
		outer loop
			vertex 0.19895599782466888 -1.4360400505124458e-9 -0.4363769590854645
			vertex 0.1838109940290451 -0.0761369988322259 -0.4363769590854645
			vertex 0 -1.9302049820921557e-16 -0.6169670224189758
		endloop
	endfacet
	facet normal 0.6661768292923457 0.132514072203492 -0.7339267352958637
		outer loop
			vertex 0.1838109940290451 0.07613719999790182 -0.4363769590854645
			vertex 0.19895599782466888 -1.4360400505124458e-9 -0.4363769590854645
			vertex 0 -1.9302049820921557e-16 -0.6169670224189758
		endloop
	endfacet
	facet normal -0.13010800890448337 -0.6540809875258053 -0.7451509697881217
		outer loop
			vertex 1.0079899936954462e-7 -0.19895599782466897 -0.4363769590854644
			vertex -0.38268300890922546 -0.9238799810409545 0.2667679786682131
			vertex -0.07613709568977356 -0.1838109940290452 -0.4363769590854644
		endloop
	endfacet
	facet normal 0.13010799556535693 -0.6540809167531374 -0.7451510342402675
		outer loop
			vertex 0.38268399238586426 -0.9238799810409545 0.2667679786682131
			vertex 1.0079899936954462e-7 -0.19895599782466897 -0.4363769590854644
			vertex 0.07613729685544968 -0.1838109940290452 -0.4363769590854644
		endloop
	endfacet
	facet normal 0.3705072394265776 -0.5545040175805618 -0.7451507767019456
		outer loop
			vertex 0.14068299531936646 -0.14068299531936654 -0.4363769590854644
			vertex 0.38268399238586426 -0.9238799810409545 0.2667679786682131
			vertex 0.07613729685544968 -0.1838109940290452 -0.4363769590854644
		endloop
	endfacet
	facet normal 0.5545048264419696 -0.3705060691729248 -0.7451507566651122
		outer loop
			vertex 0.9238799810409546 -0.3826830089092254 0.266767978668213
			vertex 0.14068299531936646 -0.14068299531936654 -0.4363769590854644
			vertex 0.1838109940290451 -0.0761369988322259 -0.4363769590854645
		endloop
	endfacet
	facet normal 0.6540808775453598 -0.13010832725018465 -0.7451510107418837
		outer loop
			vertex 0.19895599782466888 -1.4360400505124458e-9 -0.4363769590854645
			vertex 0.9238799810409546 -0.3826830089092254 0.266767978668213
			vertex 0.1838109940290451 -0.0761369988322259 -0.4363769590854645
		endloop
	endfacet
	facet normal 0.6540809107526605 0.13010798518236572 -0.7451510413203188
		outer loop
			vertex 0.9238799810409546 0.3826839923858643 0.2667679786682128
			vertex 0.19895599782466888 -1.4360400505124458e-9 -0.4363769590854645
			vertex 0.1838109940290451 0.07613719999790182 -0.4363769590854645
		endloop
	endfacet
	facet normal 0.5545042108710437 0.3705068125948847 -0.7451508450958504
		outer loop
			vertex 0.14068299531936646 0.14068299531936637 -0.43637695908546453
			vertex 0.9238799810409546 0.3826839923858643 0.2667679786682128
			vertex 0.1838109940290451 0.07613719999790182 -0.4363769590854645
		endloop
	endfacet
	facet normal 0.370506812594886 0.5545042108710432 -0.7451508450958502
		outer loop
			vertex 0.38268399238586426 0.9238799810409547 0.26676797866821267
			vertex 0.14068299531936646 0.14068299531936637 -0.43637695908546453
			vertex 0.07613719999790192 0.18381099402904502 -0.43637695908546453
		endloop
	endfacet
	facet normal 0.13010793982777077 0.6540809250987634 -0.7451510366467453
		outer loop
			vertex -2.9646798793692142e-8 0.1989559978246688 -0.43637695908546453
			vertex 0.38268399238586426 0.9238799810409547 0.26676797866821267
			vertex 0.07613719999790192 0.18381099402904502 -0.43637695908546453
		endloop
	endfacet
	facet normal -0.13010788117360766 0.6540809529363582 -0.745151022452751
		outer loop
			vertex -0.38268399238586426 0.9238799810409547 0.26676797866821267
			vertex -2.9646798793692142e-8 0.1989559978246688 -0.43637695908546453
			vertex -0.07613729685544968 0.18381099402904502 -0.43637695908546453
		endloop
	endfacet
	facet normal -0.3705072394265776 0.5545040175805618 -0.7451507767019456
		outer loop
			vertex -0.14068299531936646 0.14068299531936637 -0.43637695908546453
			vertex -0.38268399238586426 0.9238799810409547 0.26676797866821267
			vertex -0.07613729685544968 0.18381099402904502 -0.43637695908546453
		endloop
	endfacet
	facet normal -0.5545042108710436 0.3705068125948855 -0.7451508450958502
		outer loop
			vertex -0.9238799810409546 0.3826839923858643 0.2667679786682128
			vertex -0.14068299531936646 0.14068299531936637 -0.43637695908546453
			vertex -0.1838109940290451 0.07613719999790182 -0.4363769590854645
		endloop
	endfacet
	facet normal -0.6540809469358596 0.13010787079071068 -0.7451510295328035
		outer loop
			vertex -0.19895599782466888 -7.258819333086407e-8 -0.4363769590854645
			vertex -0.9238799810409546 0.3826839923858643 0.2667679786682128
			vertex -0.1838109940290451 0.07613719999790182 -0.4363769590854645
		endloop
	endfacet
	facet normal -0.6540808731088376 -0.13010810419168878 -0.7451510535836513
		outer loop
			vertex -0.9238799810409546 -0.3826839923858642 0.266767978668213
			vertex -0.19895599782466888 -7.258819333086407e-8 -0.4363769590854645
			vertex -0.1838109940290451 -0.07613719999790201 -0.4363769590854645
		endloop
	endfacet
	facet normal -0.5545042108710431 -0.37050681259488744 -0.7451508450958497
		outer loop
			vertex -0.14068299531936646 -0.14068299531936654 -0.4363769590854644
			vertex -0.9238799810409546 -0.3826839923858642 0.266767978668213
			vertex -0.1838109940290451 -0.07613719999790201 -0.4363769590854645
		endloop
	endfacet
	facet normal -0.3705064960030623 -0.5545046331528238 -0.7451506882715636
		outer loop
			vertex -0.38268300890922546 -0.9238799810409545 0.2667679786682131
			vertex -0.14068299531936646 -0.14068299531936654 -0.4363769590854644
			vertex -0.07613709568977356 -0.1838109940290452 -0.4363769590854644
		endloop
	endfacet
	facet normal -0.3725596608580424 -0.4893939466687284 0.7884750243763885
		outer loop
			vertex -0.5499330163002014 -0.8230339884757994 0.29801100492477434
			vertex -0.370961993932724 -0.8955829739570617 0.3375459909439089
			vertex -0.4395509958267212 -0.6578360199928283 0.4527029991149904
		endloop
	endfacet
	facet normal -0.30956743824634037 -0.5314840266751986 0.7884749397201632
		outer loop
			vertex -0.4395509958267212 -0.6578360199928283 0.4527029991149904
			vertex -0.6854490041732788 -0.6854500174522399 0.33754599094390886
			vertex -0.5499330163002014 -0.8230339884757994 0.29801100492477434
		endloop
	endfacet
	facet normal -0.35143544441331 -0.4882947111743127 0.7987874582448162
		outer loop
			vertex -0.28055500984191895 -0.6773210167884826 0.5107439756393434
			vertex -0.4395509958267212 -0.6578360199928283 0.4527029991149904
			vertex -0.370961993932724 -0.8955829739570617 0.3375459909439089
		endloop
	endfacet
	facet normal -0.09677340000064062 -0.5937790593195164 0.798787417130457
		outer loop
			vertex -0.15434999763965607 -0.7759699821472167 0.4527029991149904
			vertex -0.28055500984191895 -0.6773210167884826 0.5107439756393434
			vertex -0.370961993932724 -0.8955829739570617 0.3375459909439089
		endloop
	endfacet
	facet normal -0.15691601754062276 -0.5947126944632785 0.7884758553585633
		outer loop
			vertex -0.19311098754405975 -0.970834970474243 0.2980110049247744
			vertex 4.911220230496838e-7 -0.9693719148635863 0.3375459909439089
			vertex -0.15434999763965607 -0.7759699821472167 0.4527029991149904
		endloop
	endfacet
	facet normal -0.08261474884406408 -0.6094921092366398 0.7884758538165288
		outer loop
			vertex -0.15434999763965607 -0.7759699821472167 0.4527029991149904
			vertex -0.370961993932724 -0.8955829739570617 0.3375459909439089
			vertex -0.19311098754405975 -0.970834970474243 0.2980110049247744
		endloop
	endfacet
	facet normal 0.08261475949850447 -0.6094921034590306 0.7884758571662742
		outer loop
			vertex 0.19311200082302094 -0.970834970474243 0.2980110049247744
			vertex 0.3709629774093628 -0.8955829739570617 0.3375459909439089
			vertex 0.15435099601745605 -0.7759699821472167 0.4527029991149904
		endloop
	endfacet
	facet normal 0.15691599364793546 -0.5947126922915765 0.7884758617515096
		outer loop
			vertex 0.15435099601745605 -0.7759699821472167 0.4527029991149904
			vertex 4.911220230496838e-7 -0.9693719148635863 0.3375459909439089
			vertex 0.19311200082302094 -0.970834970474243 0.2980110049247744
		endloop
	endfacet
	facet normal 0.09677340875674752 -0.5937790565088017 0.7987874181589975
		outer loop
			vertex 0.28055599331855774 -0.6773210167884826 0.5107439756393434
			vertex 0.15435099601745605 -0.7759699821472167 0.4527029991149904
			vertex 0.3709629774093628 -0.8955829739570617 0.3375459909439089
		endloop
	endfacet
	facet normal 0.3514382507000442 -0.4882932687313576 0.7987871053394261
		outer loop
			vertex 0.43955197930336 -0.6578350067138671 0.4527029991149904
			vertex 0.28055599331855774 -0.6773210167884826 0.5107439756393434
			vertex 0.3709629774093628 -0.8955829739570617 0.3375459909439089
		endloop
	endfacet
	facet normal 0.30956835090573537 -0.5314814143794112 0.788476342249255
		outer loop
			vertex 0.5499340295791626 -0.8230339884757994 0.29801100492477434
			vertex 0.68545001745224 -0.6854490041732787 0.33754599094390886
			vertex 0.43955197930336 -0.6578350067138671 0.4527029991149904
		endloop
	endfacet
	facet normal 0.37255921012627574 -0.48939232233629293 0.7884762455447696
		outer loop
			vertex 0.43955197930336 -0.6578350067138671 0.4527029991149904
			vertex 0.3709629774093628 -0.8955829739570617 0.3375459909439089
			vertex 0.5499340295791626 -0.8230339884757994 0.29801100492477434
		endloop
	endfacet
	facet normal 0.4893924412580394 -0.3725618041031765 0.7884749460590889
		outer loop
			vertex 0.8230339884757996 -0.5499330163002013 0.2980110049247743
			vertex 0.895583987236023 -0.37096199393272394 0.33754599094390875
			vertex 0.6578360199928284 -0.4395509958267211 0.45270299911499035
		endloop
	endfacet
	facet normal 0.5314840266751988 -0.3095674382463402 0.7884749397201632
		outer loop
			vertex 0.6578360199928284 -0.4395509958267211 0.45270299911499035
			vertex 0.68545001745224 -0.6854490041732787 0.33754599094390886
			vertex 0.8230339884757996 -0.5499330163002013 0.2980110049247743
		endloop
	endfacet
	facet normal 0.48829311354906063 -0.35143558289431087 0.7987883739366143
		outer loop
			vertex 0.6773210167884827 -0.28055500984191883 0.5107439756393434
			vertex 0.6578360199928284 -0.4395509958267211 0.45270299911499035
			vertex 0.895583987236023 -0.37096199393272394 0.33754599094390875
		endloop
	endfacet
	facet normal 0.5937778046567451 -0.0967719071903708 0.7987885306360843
		outer loop
			vertex 0.7759699821472168 -0.15434999763965596 0.4527029991149903
			vertex 0.6773210167884827 -0.28055500984191883 0.5107439756393434
			vertex 0.895583987236023 -0.37096199393272394 0.33754599094390875
		endloop
	endfacet
	facet normal 0.5947126060326952 -0.1569164136762525 0.7884758432220885
		outer loop
			vertex 0.9708349704742432 -0.1931109875440597 0.2980110049247742
			vertex 0.9693719148635864 1.3786498248671266e-9 0.3375459909439087
			vertex 0.7759699821472168 -0.15434999763965596 0.4527029991149903
		endloop
	endfacet
	facet normal 0.6094926709399116 -0.08261153570138458 0.7884757562789053
		outer loop
			vertex 0.7759699821472168 -0.15434999763965596 0.4527029991149903
			vertex 0.895583987236023 -0.37096199393272394 0.33754599094390875
			vertex 0.9708349704742432 -0.1931109875440597 0.2980110049247742
		endloop
	endfacet
	facet normal 0.6094921831343587 0.08261432612497603 0.7884758409850169
		outer loop
			vertex 0.9708349704742432 0.1931109875440598 0.2980110049247741
			vertex 0.8955829739570618 0.37096297740936285 0.33754599094390864
			vertex 0.7759699821472168 0.15434999763965618 0.4527029991149902
		endloop
	endfacet
	facet normal 0.5947126055348213 0.15691641590653801 0.7884758431537585
		outer loop
			vertex 0.7759699821472168 0.15434999763965618 0.4527029991149902
			vertex 0.9693719148635864 1.3786498248671266e-9 0.3375459909439087
			vertex 0.9708349704742432 0.1931109875440598 0.2980110049247741
		endloop
	endfacet
	facet normal 0.5937788608505634 0.0967731638600978 0.7987875932708982
		outer loop
			vertex 0.6773210167884827 0.28055500984191906 0.5107439756393432
			vertex 0.7759699821472168 0.15434999763965618 0.4527029991149902
			vertex 0.8955829739570618 0.37096297740936285 0.33754599094390864
		endloop
	endfacet
	facet normal 0.48829359514666976 0.35143554114992004 0.7987880979054477
		outer loop
			vertex 0.6578360199928284 0.4395509958267213 0.4527029991149901
			vertex 0.6773210167884827 0.28055500984191906 0.5107439756393432
			vertex 0.8955829739570618 0.37096297740936285 0.33754599094390864
		endloop
	endfacet
	facet normal 0.5314834038963744 0.30956658586256786 0.7884756941720632
		outer loop
			vertex 0.8230339884757996 0.5499340295791627 0.29801100492477406
			vertex 0.68545001745224 0.6854500174522401 0.3375459909439085
			vertex 0.6578360199928284 0.4395509958267213 0.4527029991149901
		endloop
	endfacet
	facet normal 0.48939274580381575 0.3725593129882277 0.7884759341034715
		outer loop
			vertex 0.6578360199928284 0.4395509958267213 0.4527029991149901
			vertex 0.8955829739570618 0.37096297740936285 0.33754599094390864
			vertex 0.8230339884757996 0.5499340295791627 0.29801100492477406
		endloop
	endfacet
	facet normal 0.3725593129882273 0.48939274580381587 0.7884759341034714
		outer loop
			vertex 0.5499340295791626 0.8230339884757997 0.298011004924774
			vertex 0.3709629774093628 0.8955829739570619 0.33754599094390847
			vertex 0.4395509958267212 0.6578360199928285 0.45270299911499007
		endloop
	endfacet
	facet normal 0.3095665858625677 0.5314834038963745 0.7884756941720633
		outer loop
			vertex 0.4395509958267212 0.6578360199928285 0.45270299911499007
			vertex 0.68545001745224 0.6854500174522401 0.3375459909439085
			vertex 0.5499340295791626 0.8230339884757997 0.298011004924774
		endloop
	endfacet
	facet normal 0.3514355411499202 0.4882935951466701 0.7987880979054475
		outer loop
			vertex 0.28055500984191895 0.6773210167884828 0.5107439756393432
			vertex 0.4395509958267212 0.6578360199928285 0.45270299911499007
			vertex 0.3709629774093628 0.8955829739570619 0.33754599094390847
		endloop
	endfacet
	facet normal 0.09677316386009756 0.5937788608505639 0.798787593270898
		outer loop
			vertex 0.15434999763965607 0.7759699821472169 0.45270299911499007
			vertex 0.28055500984191895 0.6773210167884828 0.5107439756393432
			vertex 0.3709629774093628 0.8955829739570619 0.33754599094390847
		endloop
	endfacet
	facet normal 0.15691629795246226 0.5947126318660861 0.7884758467675513
		outer loop
			vertex 0.19311098754405975 0.9708349704742433 0.29801100492477395
			vertex -1.4444798068780074e-7 0.9693719148635865 0.33754599094390847
			vertex 0.15434999763965607 0.7759699821472169 0.45270299911499007
		endloop
	endfacet
	facet normal 0.08261432612497609 0.6094921831343588 0.7884758409850167
		outer loop
			vertex 0.15434999763965607 0.7759699821472169 0.45270299911499007
			vertex 0.3709629774093628 0.8955829739570619 0.33754599094390847
			vertex 0.19311098754405975 0.9708349704742433 0.29801100492477395
		endloop
	endfacet
	facet normal -0.08261432612497609 0.6094921831343588 0.7884758409850167
		outer loop
			vertex -0.19311098754405975 0.9708349704742433 0.29801100492477395
			vertex -0.3709629774093628 0.8955829739570619 0.33754599094390847
			vertex -0.15434999763965607 0.7759699821472169 0.45270299911499007
		endloop
	endfacet
	facet normal -0.15691653163049996 0.5947125797013834 0.7884758396082788
		outer loop
			vertex -0.15434999763965607 0.7759699821472169 0.45270299911499007
			vertex -1.4444798068780074e-7 0.9693719148635865 0.33754599094390847
			vertex -0.19311098754405975 0.9708349704742433 0.29801100492477395
		endloop
	endfacet
	facet normal -0.09677282210107004 0.5937792448254453 0.7987873492470438
		outer loop
			vertex -0.28055599331855774 0.6773210167884828 0.5107439756393432
			vertex -0.15434999763965607 0.7759699821472169 0.45270299911499007
			vertex -0.3709629774093628 0.8955829739570619 0.33754599094390847
		endloop
	endfacet
	facet normal -0.35143825070004464 0.4882932687313579 0.7987871053394258
		outer loop
			vertex -0.43955197930336 0.6578350067138673 0.45270299911499007
			vertex -0.28055599331855774 0.6773210167884828 0.5107439756393432
			vertex -0.3709629774093628 0.8955829739570619 0.33754599094390847
		endloop
	endfacet
	facet normal -0.3095659497510967 0.5314829391326705 0.7884762571984013
		outer loop
			vertex -0.5499340295791626 0.8230339884757997 0.298011004924774
			vertex -0.68545001745224 0.6854500174522401 0.3375459909439085
			vertex -0.43955197930336 0.6578350067138673 0.45270299911499007
		endloop
	endfacet
	facet normal -0.3725592101262753 0.48939232233629326 0.7884762455447696
		outer loop
			vertex -0.43955197930336 0.6578350067138673 0.45270299911499007
			vertex -0.3709629774093628 0.8955829739570619 0.33754599094390847
			vertex -0.5499340295791626 0.8230339884757997 0.298011004924774
		endloop
	endfacet
	facet normal -0.48939394666872843 0.37255966085804226 0.7884750243763884
		outer loop
			vertex -0.8230339884757996 0.5499330163002015 0.29801100492477406
			vertex -0.8955829739570618 0.37096199393272405 0.33754599094390864
			vertex -0.6578360199928284 0.4395509958267213 0.4527029991149901
		endloop
	endfacet
	facet normal -0.531484914781468 0.3095660396741353 0.7884748901773648
		outer loop
			vertex -0.6578360199928284 0.4395509958267213 0.4527029991149901
			vertex -0.68545001745224 0.6854500174522401 0.3375459909439085
			vertex -0.8230339884757996 0.5499330163002015 0.29801100492477406
		endloop
	endfacet
	facet normal -0.4882947111743128 0.3514354444133102 0.798787458244816
		outer loop
			vertex -0.6773210167884827 0.28055500984191906 0.5107439756393432
			vertex -0.6578360199928284 0.4395509958267213 0.4527029991149901
			vertex -0.8955829739570618 0.37096199393272405 0.33754599094390864
		endloop
	endfacet
	facet normal -0.5937790593195165 0.0967734000006407 0.7987874171304569
		outer loop
			vertex -0.7759699821472168 0.15434999763965618 0.4527029991149902
			vertex -0.6773210167884827 0.28055500984191906 0.5107439756393432
			vertex -0.8955829739570618 0.37096199393272405 0.33754599094390864
		endloop
	endfacet
	facet normal -0.5947126681322388 0.1569161354937898 0.7884758517448257
		outer loop
			vertex -0.9708349704742432 0.1931109875440598 0.2980110049247741
			vertex -0.9693719148635864 -3.4529600149434495e-7 0.3375459909439087
			vertex -0.7759699821472168 0.15434999763965618 0.4527029991149902
		endloop
	endfacet
	facet normal -0.60949210923664 0.08261474884406417 0.788475853816529
		outer loop
			vertex -0.7759699821472168 0.15434999763965618 0.4527029991149902
			vertex -0.8955829739570618 0.37096199393272405 0.33754599094390864
			vertex -0.9708349704742432 0.1931109875440598 0.2980110049247741
		endloop
	endfacet
	facet normal -0.6094921831343587 -0.08261432612497603 0.7884758409850169
		outer loop
			vertex -0.9708349704742432 -0.1931109875440597 0.2980110049247742
			vertex -0.8955829739570618 -0.37096297740936274 0.33754599094390875
			vertex -0.7759699821472168 -0.15434999763965596 0.4527029991149903
		endloop
	endfacet
	facet normal -0.594712543435007 -0.1569166940899821 0.7884758346309263
		outer loop
			vertex -0.7759699821472168 -0.15434999763965596 0.4527029991149903
			vertex -0.9693719148635864 -3.4529600149434495e-7 0.3375459909439087
			vertex -0.9708349704742432 -0.1931109875440597 0.2980110049247742
		endloop
	endfacet
	facet normal -0.5937792448254451 -0.09677282210106992 0.7987873492470439
		outer loop
			vertex -0.6773210167884827 -0.28055599331855763 0.5107439756393434
			vertex -0.7759699821472168 -0.15434999763965596 0.4527029991149903
			vertex -0.8955829739570618 -0.37096297740936274 0.33754599094390875
		endloop
	endfacet
	facet normal -0.48829326873135787 -0.3514382507000444 0.7987871053394258
		outer loop
			vertex -0.6578350067138672 -0.4395519793033599 0.45270299911499035
			vertex -0.6773210167884827 -0.28055599331855763 0.5107439756393434
			vertex -0.8955829739570618 -0.37096297740936274 0.33754599094390875
		endloop
	endfacet
	facet normal -0.5314814143794113 -0.30956835090573515 0.788476342249255
		outer loop
			vertex -0.8230339884757996 -0.5499340295791625 0.2980110049247743
			vertex -0.6854490041732788 -0.6854500174522399 0.33754599094390886
			vertex -0.6578350067138672 -0.4395519793033599 0.45270299911499035
		endloop
	endfacet
	facet normal -0.4893923223362931 -0.37255921012627535 0.7884762455447695
		outer loop
			vertex -0.6578350067138672 -0.4395519793033599 0.45270299911499035
			vertex -0.8955829739570618 -0.37096297740936274 0.33754599094390875
			vertex -0.8230339884757996 -0.5499340295791625 0.2980110049247743
		endloop
	endfacet
	facet normal -0.5533458849295009 -0.1100634674898212 0.8256478454860188
		outer loop
			vertex -0.5308899283409119 -0.21990199387073503 0.6169670224189758
			vertex -0.6197530031204224 -0.12327700108289706 0.5702919960021973
			vertex -0.6773210167884827 -0.28055599331855763 0.5107439756393434
		endloop
	endfacet
	facet normal -0.469100424153391 -0.31344918122521864 0.8256478685543546
		outer loop
			vertex -0.6773210167884827 -0.28055599331855763 0.5107439756393434
			vertex -0.5254009962081909 -0.35106199979782093 0.5702919960021974
			vertex -0.5308899283409119 -0.21990199387073503 0.6169670224189758
		endloop
	endfacet
	facet normal -0.3134492183493771 -0.46910038343639465 0.825647877594312
		outer loop
			vertex -0.21990099549293518 -0.5308899283409118 0.6169670224189759
			vertex -0.35106098651885986 -0.5254009962081908 0.5702919960021974
			vertex -0.28055500984191895 -0.6773210167884826 0.5107439756393434
		endloop
	endfacet
	facet normal -0.11006346061504052 -0.553345879756559 0.8256478498693504
		outer loop
			vertex -0.28055500984191895 -0.6773210167884826 0.5107439756393434
			vertex -0.1232760027050972 -0.6197530031204223 0.5702919960021974
			vertex -0.21990099549293518 -0.5308899283409118 0.6169670224189759
		endloop
	endfacet
	facet normal 0.11006346748982156 -0.5533458849295011 0.8256478454860186
		outer loop
			vertex 0.21990199387073517 -0.5308899283409118 0.6169670224189759
			vertex 0.12327700108289719 -0.6197530031204223 0.5702919960021974
			vertex 0.28055599331855774 -0.6773210167884826 0.5107439756393434
		endloop
	endfacet
	facet normal 0.31344918122521925 -0.4691004241533912 0.8256478685543542
		outer loop
			vertex 0.28055599331855774 -0.6773210167884826 0.5107439756393434
			vertex 0.35106199979782104 -0.5254009962081908 0.5702919960021974
			vertex 0.21990199387073517 -0.5308899283409118 0.6169670224189759
		endloop
	endfacet
	facet normal 0.46910038343639454 -0.31344921834937656 0.8256478775943125
		outer loop
			vertex 0.5308899283409119 -0.21990099549293504 0.6169670224189758
			vertex 0.5254009962081909 -0.35106098651885975 0.5702919960021974
			vertex 0.6773210167884827 -0.28055500984191883 0.5107439756393434
		endloop
	endfacet
	facet normal 0.5533458797565588 -0.11006346061504016 0.8256478498693507
		outer loop
			vertex 0.6773210167884827 -0.28055500984191883 0.5107439756393434
			vertex 0.6197530031204224 -0.12327600270509707 0.5702919960021973
			vertex 0.5308899283409119 -0.21990099549293504 0.6169670224189758
		endloop
	endfacet
	facet normal 0.5533462263449966 0.11006392122724745 0.8256475561847405
		outer loop
			vertex 0.5308899283409119 0.2199019938707353 0.6169670224189758
			vertex 0.6197530031204224 0.12327700108289731 0.5702919960021973
			vertex 0.6773210167884827 0.28055500984191906 0.5107439756393432
		endloop
	endfacet
	facet normal 0.4691020253971158 0.31344895504129994 0.8256470446576074
		outer loop
			vertex 0.6773210167884827 0.28055500984191906 0.5107439756393432
			vertex 0.5254009962081909 0.35106199979782116 0.5702919960021972
			vertex 0.5308899283409119 0.2199019938707353 0.6169670224189758
		endloop
	endfacet
	facet normal 0.3134469269597421 0.46910150241430515 0.8256481117353419
		outer loop
			vertex 0.21990099549293518 0.530889928340912 0.6169670224189757
			vertex 0.35106199979782104 0.525400996208191 0.5702919960021972
			vertex 0.28055500984191895 0.6773210167884828 0.5107439756393432
		endloop
	endfacet
	facet normal 0.11006346061504052 0.553345879756559 0.8256478498693504
		outer loop
			vertex 0.28055500984191895 0.6773210167884828 0.5107439756393432
			vertex 0.1232760027050972 0.6197530031204225 0.5702919960021972
			vertex 0.21990099549293518 0.530889928340912 0.6169670224189757
		endloop
	endfacet
	facet normal -0.11006346748982156 0.5533458849295011 0.8256478454860186
		outer loop
			vertex -0.21990199387073517 0.530889928340912 0.6169670224189757
			vertex -0.12327700108289719 0.6197530031204225 0.5702919960021972
			vertex -0.28055599331855774 0.6773210167884828 0.5107439756393432
		endloop
	endfacet
	facet normal -0.31344918122521925 0.4691004241533912 0.8256478685543542
		outer loop
			vertex -0.28055599331855774 0.6773210167884828 0.5107439756393432
			vertex -0.35106199979782104 0.525400996208191 0.5702919960021972
			vertex -0.21990199387073517 0.530889928340912 0.6169670224189757
		endloop
	endfacet
	facet normal -0.4691003834363949 0.3134492183493778 0.8256478775943118
		outer loop
			vertex -0.5308899283409119 0.21990099549293532 0.6169670224189758
			vertex -0.5254009962081909 0.35106098651886 0.5702919960021972
			vertex -0.6773210167884827 0.28055500984191906 0.5107439756393432
		endloop
	endfacet
	facet normal -0.5533458797565594 0.11006346061504088 0.8256478498693501
		outer loop
			vertex -0.6773210167884827 0.28055500984191906 0.5107439756393432
			vertex -0.6197530031204224 0.12327600270509732 0.5702919960021973
			vertex -0.5308899283409119 0.21990099549293532 0.6169670224189758
		endloop
	endfacet
	facet normal -0.5083825043776214 0.5083795496152761 0.6950521295382863
		outer loop
			vertex -0.5254009962081909 0.35106098651886 0.5702919960021972
			vertex -0.40632501244544983 0.40632396936416637 0.6169670224189757
			vertex -0.35106199979782104 0.525400996208191 0.5702919960021972
		endloop
	endfacet
	facet normal -0.5083823077899181 0.5083793530287154 0.6950524171170845
		outer loop
			vertex -0.5254009962081909 0.35106098651886 0.5702919960021972
			vertex -0.35106199979782104 0.525400996208191 0.5702919960021972
			vertex -0.28055599331855774 0.6773210167884828 0.5107439756393432
		endloop
	endfacet
	facet normal -0.3561972986889496 0.41968733791134877 0.8348568876182196
		outer loop
			vertex -0.5254009962081909 0.35106098651886 0.5702919960021972
			vertex -0.28055599331855774 0.6773210167884828 0.5107439756393432
			vertex -0.43955197930336 0.6578350067138673 0.45270299911499007
		endloop
	endfacet
	facet normal -0.3461607441397356 0.41868478309362733 0.8395688129167654
		outer loop
			vertex -0.5254009962081909 0.35106098651886 0.5702919960021972
			vertex -0.43955197930336 0.6578350067138673 0.45270299911499007
			vertex -0.68545001745224 0.6854500174522401 0.3375459909439085
		endloop
	endfacet
	facet normal -0.5000753456949784 0.3205786983210376 0.804458791244671
		outer loop
			vertex -0.5254009962081909 0.35106098651886 0.5702919960021972
			vertex -0.68545001745224 0.6854500174522401 0.3375459909439085
			vertex -0.6578360199928284 0.4395509958267213 0.4527029991149901
		endloop
	endfacet
	facet normal -0.4787046316077315 0.35224266762922174 0.804218240764754
		outer loop
			vertex -0.5254009962081909 0.35106098651886 0.5702919960021972
			vertex -0.6578360199928284 0.4395509958267213 0.4527029991149901
			vertex -0.6773210167884827 0.28055500984191906 0.5107439756393432
		endloop
	endfacet
	facet normal -0.7189587524427331 0 0.6950527406506566
		outer loop
			vertex -0.6197530031204224 -0.12327700108289706 0.5702919960021973
			vertex -0.5746299624443054 -2.2680200104275473e-7 0.6169670224189758
			vertex -0.6197530031204224 0.12327600270509732 0.5702919960021973
		endloop
	endfacet
	facet normal -0.7189586472611672 0 0.6950528494498764
		outer loop
			vertex -0.6197530031204224 -0.12327700108289706 0.5702919960021973
			vertex -0.6197530031204224 0.12327600270509732 0.5702919960021973
			vertex -0.6773210167884827 0.28055500984191906 0.5107439756393432
		endloop
	endfacet
	facet normal -0.548632486282762 0.04489594162472984 0.8348573227928374
		outer loop
			vertex -0.6197530031204224 -0.12327700108289706 0.5702919960021973
			vertex -0.6773210167884827 0.28055500984191906 0.5107439756393432
			vertex -0.7759699821472168 0.15434999763965618 0.4527029991149902
		endloop
	endfacet
	facet normal -0.5408293612897532 0.051281702987619714 0.8395676202103123
		outer loop
			vertex -0.6197530031204224 -0.12327700108289706 0.5702919960021973
			vertex -0.7759699821472168 0.15434999763965618 0.4527029991149902
			vertex -0.9693719148635864 -3.4529600149434495e-7 0.3375459909439087
		endloop
	endfacet
	facet normal -0.580291827007454 -0.12692384780868007 0.8044574148864502
		outer loop
			vertex -0.6197530031204224 -0.12327700108289706 0.5702919960021973
			vertex -0.9693719148635864 -3.4529600149434495e-7 0.3375459909439087
			vertex -0.7759699821472168 -0.15434999763965596 0.4527029991149903
		endloop
	endfacet
	facet normal -0.5875701853770632 -0.08942248681318232 0.8042169459220005
		outer loop
			vertex -0.6197530031204224 -0.12327700108289706 0.5702919960021973
			vertex -0.7759699821472168 -0.15434999763965596 0.4527029991149903
			vertex -0.6773210167884827 -0.28055599331855763 0.5107439756393434
		endloop
	endfacet
	facet normal -0.5083795496152761 -0.5083825043776214 0.6950521295382863
		outer loop
			vertex -0.35106098651885986 -0.5254009962081908 0.5702919960021974
			vertex -0.40632396936416626 -0.4063250124454497 0.6169670224189759
			vertex -0.5254009962081909 -0.35106199979782093 0.5702919960021974
		endloop
	endfacet
	facet normal -0.5083793530287154 -0.5083823077899181 0.6950524171170845
		outer loop
			vertex -0.35106098651885986 -0.5254009962081908 0.5702919960021974
			vertex -0.5254009962081909 -0.35106199979782093 0.5702919960021974
			vertex -0.6773210167884827 -0.28055599331855763 0.5107439756393434
		endloop
	endfacet
	facet normal -0.4196873379113487 -0.35619729868894945 0.83485688761822
		outer loop
			vertex -0.35106098651885986 -0.5254009962081908 0.5702919960021974
			vertex -0.6773210167884827 -0.28055599331855763 0.5107439756393434
			vertex -0.6578350067138672 -0.4395519793033599 0.45270299911499035
		endloop
	endfacet
	facet normal -0.418684926706585 -0.3461621485769972 0.8395681622365504
		outer loop
			vertex -0.35106098651885986 -0.5254009962081908 0.5702919960021974
			vertex -0.6578350067138672 -0.4395519793033599 0.45270299911499035
			vertex -0.6854490041732788 -0.6854500174522399 0.33754599094390886
		endloop
	endfacet
	facet normal -0.32058013271086755 -0.5000744011007966 0.8044588068227997
		outer loop
			vertex -0.35106098651885986 -0.5254009962081908 0.5702919960021974
			vertex -0.6854490041732788 -0.6854500174522399 0.33754599094390886
			vertex -0.4395509958267212 -0.6578360199928283 0.4527029991149904
		endloop
	endfacet
	facet normal -0.3522426676292216 -0.47870463160773147 0.8042182407647542
		outer loop
			vertex -0.35106098651885986 -0.5254009962081908 0.5702919960021974
			vertex -0.4395509958267212 -0.6578360199928283 0.4527029991149904
			vertex -0.28055500984191895 -0.6773210167884826 0.5107439756393434
		endloop
	endfacet
	facet normal 0.005042582835112494 0.7255720061776747 -0.6881277760777104
		outer loop
			vertex 0.28055599331855774 -0.6773210167884826 0.5107439756393434
			vertex 0.12327700108289719 -0.6197530031204223 0.5702919960021974
			vertex 2.911299930019595e-7 -0.5746299624443053 0.6169670224189759
		endloop
	endfacet
	facet normal -2.2337718741356707e-8 -0.7189587229608267 0.6950527711465776
		outer loop
			vertex 0.28055599331855774 -0.6773210167884826 0.5107439756393434
			vertex 2.911299930019595e-7 -0.5746299624443053 0.6169670224189759
			vertex -0.1232760027050972 -0.6197530031204223 0.5702919960021974
		endloop
	endfacet
	facet normal 0 -0.7189586472611665 0.6950528494498771
		outer loop
			vertex 0.28055599331855774 -0.6773210167884826 0.5107439756393434
			vertex -0.1232760027050972 -0.6197530031204223 0.5702919960021974
			vertex -0.28055500984191895 -0.6773210167884826 0.5107439756393434
		endloop
	endfacet
	facet normal 0 -0.507099140844788 0.8618877312936285
		outer loop
			vertex 0.28055599331855774 -0.6773210167884826 0.5107439756393434
			vertex -0.28055500984191895 -0.6773210167884826 0.5107439756393434
			vertex -0.15434999763965607 -0.7759699821472167 0.4527029991149904
		endloop
	endfacet
	facet normal 0 -0.5116046065704349 0.8592209998224616
		outer loop
			vertex -0.15434999763965607 -0.7759699821472167 0.4527029991149904
			vertex 4.911220230496838e-7 -0.9693719148635863 0.3375459909439089
			vertex 0.15435099601745605 -0.7759699821472167 0.4527029991149904
		endloop
	endfacet
	facet normal 0 -0.507099140844788 0.8618877312936286
		outer loop
			vertex -0.15434999763965607 -0.7759699821472167 0.4527029991149904
			vertex 0.15435099601745605 -0.7759699821472167 0.4527029991149904
			vertex 0.28055599331855774 -0.6773210167884826 0.5107439756393434
		endloop
	endfacet
	facet normal 0.5083825043776214 -0.5083795496152761 0.6950521295382863
		outer loop
			vertex 0.5254009962081909 -0.35106098651885975 0.5702919960021974
			vertex 0.40632501244544983 -0.40632396936416615 0.6169670224189759
			vertex 0.35106199979782104 -0.5254009962081908 0.5702919960021974
		endloop
	endfacet
	facet normal 0.5083823077899181 -0.5083793530287154 0.6950524171170845
		outer loop
			vertex 0.5254009962081909 -0.35106098651885975 0.5702919960021974
			vertex 0.35106199979782104 -0.5254009962081908 0.5702919960021974
			vertex 0.28055599331855774 -0.6773210167884826 0.5107439756393434
		endloop
	endfacet
	facet normal 0.35619729868894917 -0.41968733791134843 0.83485688761822
		outer loop
			vertex 0.5254009962081909 -0.35106098651885975 0.5702919960021974
			vertex 0.28055599331855774 -0.6773210167884826 0.5107439756393434
			vertex 0.43955197930336 -0.6578350067138671 0.4527029991149904
		endloop
	endfacet
	facet normal 0.34616214857699734 -0.41868492670658497 0.8395681622365504
		outer loop
			vertex 0.5254009962081909 -0.35106098651885975 0.5702919960021974
			vertex 0.43955197930336 -0.6578350067138671 0.4527029991149904
			vertex 0.68545001745224 -0.6854490041732787 0.33754599094390886
		endloop
	endfacet
	facet normal 0.500074401100797 -0.32058013271086716 0.8044588068227994
		outer loop
			vertex 0.5254009962081909 -0.35106098651885975 0.5702919960021974
			vertex 0.68545001745224 -0.6854490041732787 0.33754599094390886
			vertex 0.6578360199928284 -0.4395509958267211 0.45270299911499035
		endloop
	endfacet
	facet normal 0.4787046316077315 -0.35224266762922174 0.804218240764754
		outer loop
			vertex 0.5254009962081909 -0.35106098651885975 0.5702919960021974
			vertex 0.6578360199928284 -0.4395509958267211 0.45270299911499035
			vertex 0.6773210167884827 -0.28055500984191883 0.5107439756393434
		endloop
	endfacet
	facet normal -0.7337333335791164 0.011356073824863581 -0.6793426490234228
		outer loop
			vertex 0.6773210167884827 0.28055500984191906 0.5107439756393432
			vertex 0.6197530031204224 0.12327700108289731 0.5702919960021973
			vertex 0.5746299624443054 -2.1298100923557545e-8 0.6169670224189758
		endloop
	endfacet
	facet normal 0.718958722960829 -2.2337773618963273e-8 0.6950527711465753
		outer loop
			vertex 0.6773210167884827 0.28055500984191906 0.5107439756393432
			vertex 0.5746299624443054 -2.1298100923557545e-8 0.6169670224189758
			vertex 0.6197530031204224 -0.12327600270509707 0.5702919960021973
		endloop
	endfacet
	facet normal 0.7189586472611663 2.7994974654097084e-16 0.6950528494498774
		outer loop
			vertex 0.6773210167884827 0.28055500984191906 0.5107439756393432
			vertex 0.6197530031204224 -0.12327600270509707 0.5702919960021973
			vertex 0.6773210167884827 -0.28055500984191883 0.5107439756393434
		endloop
	endfacet
	facet normal 0.5070991408447884 3.410695123438688e-16 0.8618877312936283
		outer loop
			vertex 0.6773210167884827 0.28055500984191906 0.5107439756393432
			vertex 0.6773210167884827 -0.28055500984191883 0.5107439756393434
			vertex 0.7759699821472168 -0.15434999763965596 0.4527029991149903
		endloop
	endfacet
	facet normal 0.5116046065704352 2.9958423247446103e-16 0.8592209998224616
		outer loop
			vertex 0.7759699821472168 -0.15434999763965596 0.4527029991149903
			vertex 0.9693719148635864 1.3786498248671266e-9 0.3375459909439087
			vertex 0.7759699821472168 0.15434999763965618 0.4527029991149902
		endloop
	endfacet
	facet normal 0.5070991408447882 3.0997331342954284e-16 0.8618877312936283
		outer loop
			vertex 0.7759699821472168 -0.15434999763965596 0.4527029991149903
			vertex 0.7759699821472168 0.15434999763965618 0.4527029991149902
			vertex 0.6773210167884827 0.28055500984191906 0.5107439756393432
		endloop
	endfacet
	facet normal 0.5083830915867323 0.5083830915867323 0.6950491093278464
		outer loop
			vertex 0.35106199979782104 0.525400996208191 0.5702919960021972
			vertex 0.40632501244544983 0.40632501244544994 0.6169670224189757
			vertex 0.5254009962081909 0.35106199979782116 0.5702919960021972
		endloop
	endfacet
	facet normal 0.5083818473183314 0.5083818473183314 0.695050929525601
		outer loop
			vertex 0.35106199979782104 0.525400996208191 0.5702919960021972
			vertex 0.5254009962081909 0.35106199979782116 0.5702919960021972
			vertex 0.6773210167884827 0.28055500984191906 0.5107439756393432
		endloop
	endfacet
	facet normal 0.41968806592367697 0.3561949460665176 0.8348575254005405
		outer loop
			vertex 0.35106199979782104 0.525400996208191 0.5702919960021972
			vertex 0.6773210167884827 0.28055500984191906 0.5107439756393432
			vertex 0.6578360199928284 0.4395509958267213 0.4527029991149901
		endloop
	endfacet
	facet normal 0.4186857162987969 0.34616075928079565 0.8395683412930163
		outer loop
			vertex 0.35106199979782104 0.525400996208191 0.5702919960021972
			vertex 0.6578360199928284 0.4395509958267213 0.4527029991149901
			vertex 0.68545001745224 0.6854500174522401 0.3375459909439085
		endloop
	endfacet
	facet normal 0.320578006022788 0.5000773820549199 0.8044578012621615
		outer loop
			vertex 0.35106199979782104 0.525400996208191 0.5702919960021972
			vertex 0.68545001745224 0.6854500174522401 0.3375459909439085
			vertex 0.4395509958267212 0.6578360199928285 0.45270299911499007
		endloop
	endfacet
	facet normal 0.35224251498690584 0.47870650035465545 0.8042171952612663
		outer loop
			vertex 0.35106199979782104 0.525400996208191 0.5702919960021972
			vertex 0.4395509958267212 0.6578360199928285 0.45270299911499007
			vertex 0.28055500984191895 0.6773210167884828 0.5107439756393432
		endloop
	endfacet
	facet normal 0 0.7189587524427331 0.6950527406506566
		outer loop
			vertex -0.12327700108289719 0.6197530031204225 0.5702919960021972
			vertex -8.562660269717526e-8 0.5746299624443055 0.6169670224189757
			vertex 0.1232760027050972 0.6197530031204225 0.5702919960021972
		endloop
	endfacet
	facet normal 0 0.7189586472611665 0.6950528494498771
		outer loop
			vertex -0.12327700108289719 0.6197530031204225 0.5702919960021972
			vertex 0.1232760027050972 0.6197530031204225 0.5702919960021972
			vertex 0.28055500984191895 0.6773210167884828 0.5107439756393432
		endloop
	endfacet
	facet normal 0.04489594162472953 0.5486324862827623 0.8348573227928372
		outer loop
			vertex -0.12327700108289719 0.6197530031204225 0.5702919960021972
			vertex 0.28055500984191895 0.6773210167884828 0.5107439756393432
			vertex 0.15434999763965607 0.7759699821472169 0.45270299911499007
		endloop
	endfacet
	facet normal 0.051281724632357986 0.5408293347140781 0.839567636007641
		outer loop
			vertex -0.12327700108289719 0.6197530031204225 0.5702919960021972
			vertex 0.15434999763965607 0.7759699821472169 0.45270299911499007
			vertex -1.4444798068780074e-7 0.9693719148635865 0.33754599094390847
		endloop
	endfacet
	facet normal -0.1269237157928386 0.5802918541871533 0.8044574161093764
		outer loop
			vertex -0.12327700108289719 0.6197530031204225 0.5702919960021972
			vertex -1.4444798068780074e-7 0.9693719148635865 0.33754599094390847
			vertex -0.15434999763965607 0.7759699821472169 0.45270299911499007
		endloop
	endfacet
	facet normal -0.08942248681318267 0.5875701853770634 0.8042169459220003
		outer loop
			vertex -0.12327700108289719 0.6197530031204225 0.5702919960021972
			vertex -0.15434999763965607 0.7759699821472169 0.45270299911499007
			vertex -0.28055599331855774 0.6773210167884828 0.5107439756393432
		endloop
	endfacet
	facet normal -7.189068009299335e-16 1.0759020923868064e-15 1
		outer loop
			vertex 0.21990199387073517 -0.5308899283409118 0.6169670224189759
			vertex 0.40632501244544983 -0.40632396936416615 0.6169670224189759
			vertex 0.5308899283409119 -0.21990099549293504 0.6169670224189758
		endloop
	endfacet
	facet normal 4.456404152460555e-16 -8.864138520569975e-17 1
		outer loop
			vertex 0.21990199387073517 -0.5308899283409118 0.6169670224189759
			vertex 0.5308899283409119 -0.21990099549293504 0.6169670224189758
			vertex 0.5746299624443054 -2.1298100923557545e-8 0.6169670224189758
		endloop
	endfacet
	facet normal 2.411820909730465e-16 4.797278859036046e-17 1
		outer loop
			vertex 0.21990199387073517 -0.5308899283409118 0.6169670224189759
			vertex 0.5746299624443054 -2.1298100923557545e-8 0.6169670224189758
			vertex 0.5308899283409119 0.2199019938707353 0.6169670224189758
		endloop
	endfacet
	facet normal -4.1358752677117603e-16 3.1918701579764414e-16 1
		outer loop
			vertex 0.21990199387073517 -0.5308899283409118 0.6169670224189759
			vertex 0.5308899283409119 0.2199019938707353 0.6169670224189758
			vertex 0.40632501244544983 0.40632501244544994 0.6169670224189757
		endloop
	endfacet
	facet normal 1.3973329298042123e-16 2.0912503004677698e-16 1
		outer loop
			vertex 0.21990199387073517 -0.5308899283409118 0.6169670224189759
			vertex 0.40632501244544983 0.40632501244544994 0.6169670224189757
			vertex 0.21990099549293518 0.530889928340912 0.6169670224189757
		endloop
	endfacet
	facet normal 4.159657543912541e-17 2.091249377700969e-16 1
		outer loop
			vertex 0.21990199387073517 -0.5308899283409118 0.6169670224189759
			vertex 0.21990099549293518 0.530889928340912 0.6169670224189757
			vertex -8.562660269717526e-8 0.5746299624443055 0.6169670224189757
		endloop
	endfacet
	facet normal -3.8430149052990227e-17 1.9320659629305897e-16 1
		outer loop
			vertex 0.21990199387073517 -0.5308899283409118 0.6169670224189759
			vertex -8.562660269717526e-8 0.5746299624443055 0.6169670224189757
			vertex -0.21990199387073517 0.530889928340912 0.6169670224189757
		endloop
	endfacet
	facet normal -1.0944394019162632e-16 1.6379169608482193e-16 1
		outer loop
			vertex 0.21990199387073517 -0.5308899283409118 0.6169670224189759
			vertex -0.21990199387073517 0.530889928340912 0.6169670224189757
			vertex -0.40632501244544983 0.40632396936416637 0.6169670224189757
		endloop
	endfacet
	facet normal 2.6835502678730395e-16 4.1622917770976054e-16 1
		outer loop
			vertex 0.21990199387073517 -0.5308899283409118 0.6169670224189759
			vertex -0.40632501244544983 0.40632396936416637 0.6169670224189757
			vertex -0.5308899283409119 0.21990099549293532 0.6169670224189758
		endloop
	endfacet
	facet normal -1.233403012839787e-16 2.4533328774536295e-17 1
		outer loop
			vertex 0.21990199387073517 -0.5308899283409118 0.6169670224189759
			vertex -0.5308899283409119 0.21990099549293532 0.6169670224189758
			vertex -0.5746299624443054 -2.2680200104275473e-7 0.6169670224189758
		endloop
	endfacet
	facet normal -1.6115080770224763e-16 -3.2054048126327816e-17 1
		outer loop
			vertex 0.21990199387073517 -0.5308899283409118 0.6169670224189759
			vertex -0.5746299624443054 -2.2680200104275473e-7 0.6169670224189758
			vertex -0.5308899283409119 -0.21990199387073503 0.6169670224189758
		endloop
	endfacet
	facet normal 1.366193567867292e-16 6.868273276249126e-16 1
		outer loop
			vertex 0.21990199387073517 -0.5308899283409118 0.6169670224189759
			vertex -0.5308899283409119 -0.21990199387073503 0.6169670224189758
			vertex -0.40632396936416626 -0.4063250124454497 0.6169670224189759
		endloop
	endfacet
	facet normal 0 0 1
		outer loop
			vertex 0.21990199387073517 -0.5308899283409118 0.6169670224189759
			vertex -0.40632396936416626 -0.4063250124454497 0.6169670224189759
			vertex -0.21990099549293518 -0.5308899283409118 0.6169670224189759
		endloop
	endfacet
	facet normal 0 0 1
		outer loop
			vertex -0.21990099549293518 -0.5308899283409118 0.6169670224189759
			vertex 2.911299930019595e-7 -0.5746299624443053 0.6169670224189759
			vertex 0.21990199387073517 -0.5308899283409118 0.6169670224189759
		endloop
	endfacet
endsolid exported
